<svg width="43" height="43" viewBox="0 0 43 43" fill="none" xmlns="http://www.w3.org/2000/svg">
<path d="M14.1875 14.1875L21.5 21.5M21.5 21.5L28.8125 28.8125M21.5 21.5L14.1875 28.8125M21.5 21.5L28.8125 14.1875M2 33.2V9.8C2 7.07 2 5.705 2.53137 4.66175C2.99937 3.74281 3.74281 2.99937 4.66175 2.53137C5.705 2 7.07 2 9.8 2H33.2C35.93 2 37.295 2 38.3383 2.53137C39.2555 2.99875 40.0012 3.7445 40.4686 4.66175C41 5.705 41 7.07 41 9.8V33.2C41 35.93 41 37.295 40.4686 38.3383C40.0011 39.2554 39.2554 40.0011 38.3383 40.4686C37.295 41 35.9349 41 33.2098 41H9.79269C7.06756 41 5.70256 41 4.66175 40.4686C3.7445 40.0012 2.99875 39.2555 2.53137 38.3383C2 37.295 2 35.93 2 33.2Z" stroke="#C1A883" stroke-width="3" stroke-linecap="round" stroke-linejoin="round"/>
</svg>
