<svg width="64" height="64" viewBox="0 0 64 64" fill="none" xmlns="http://www.w3.org/2000/svg">
<g clip-path="url(#clip0_3847_2)">
<path d="M1.172 1.17196C1.92211 0.422074 2.93934 0.000812687 4 0.000812687C5.06066 0.000812687 6.07789 0.422074 6.828 1.17196L32 26.344L57.172 1.17196C57.541 0.789918 57.9824 0.485189 58.4704 0.275553C58.9584 0.0659169 59.4833 -0.044428 60.0144 -0.0490433C60.5455 -0.0536586 61.0722 0.0475483 61.5638 0.248672C62.0554 0.449795 62.502 0.746808 62.8776 1.12238C63.2531 1.49795 63.5502 1.94456 63.7513 2.43614C63.9524 2.92773 64.0536 3.45445 64.049 3.98556C64.0444 4.51668 63.934 5.04156 63.7244 5.52958C63.5148 6.01759 63.21 6.45897 62.828 6.82796L37.656 32L62.828 57.172C63.5566 57.9264 63.9598 58.9368 63.9507 59.9856C63.9416 61.0343 63.5209 62.0376 62.7793 62.7792C62.0376 63.5209 61.0344 63.9415 59.9856 63.9507C58.9368 63.9598 57.9264 63.5566 57.172 62.828L32 37.656L6.828 62.828C6.07359 63.5566 5.06318 63.9598 4.0144 63.9507C2.96561 63.9415 1.96236 63.5209 1.22073 62.7792C0.479094 62.0376 0.0584178 61.0343 0.0493041 59.9856C0.0401905 58.9368 0.443368 57.9264 1.172 57.172L26.344 32L1.172 6.82796C0.422116 6.07785 0.000854492 5.06062 0.000854492 3.99996C0.000854492 2.9393 0.422116 1.92207 1.172 1.17196Z" fill="#AC987D"/>
</g>
<defs>
<clipPath id="clip0_3847_2">
<rect width="64" height="64" fill="white"/>
</clipPath>
</defs>
</svg>
