<svg width="256" height="256" viewBox="0 0 256 256" fill="none" xmlns="http://www.w3.org/2000/svg">
<g filter="url(#filter0_d_4148_4144)">
<path d="M107.467 202.667C111.911 202.667 115.068 200.757 116.939 196.939C118.809 193.12 118.496 189.429 116 185.867L74.6666 128L116 70.1333C118.489 66.5778 118.802 62.8871 116.939 59.0613C115.075 55.2356 111.918 53.3262 107.467 53.3333C105.511 53.3333 103.733 53.824 102.133 54.8053C100.533 55.7867 99.1999 56.9849 98.1332 58.4L53.0666 121.867C52.3554 122.756 51.8221 123.733 51.4666 124.8C51.111 125.867 50.9332 126.933 50.9332 128C50.9332 129.067 51.111 130.091 51.4666 131.072C51.8221 132.053 52.3554 133.074 53.0666 134.133L98.1332 197.6C99.1999 199.022 100.533 200.224 102.133 201.205C103.733 202.187 105.511 202.674 107.467 202.667ZM170.933 202.667C175.378 202.667 178.531 200.757 180.395 196.939C182.258 193.12 181.948 189.429 179.467 185.867L138.133 128L179.467 70.1333C181.955 66.5778 182.265 62.8871 180.395 59.0613C178.524 55.2356 175.371 53.3262 170.933 53.3333C168.978 53.3333 167.2 53.824 165.6 54.8053C164 55.7867 162.667 56.9849 161.6 58.4L116.533 121.867C115.822 122.756 115.289 123.733 114.933 124.8C114.578 125.867 114.4 126.933 114.4 128C114.4 129.067 114.578 130.133 114.933 131.2C115.289 132.267 115.822 133.244 116.533 134.133L161.6 197.6C162.667 199.022 164 200.224 165.6 201.205C167.2 202.187 168.978 202.674 170.933 202.667Z" fill="url(#paint0_linear_4148_4144)" shape-rendering="crispEdges"/>
<path d="M107.466 52.8333C109.764 52.8297 111.76 53.3213 113.432 54.3321C115.105 55.3439 116.421 56.8566 117.388 58.8424C118.353 60.8241 118.765 62.793 118.599 64.7409C118.434 66.6882 117.696 68.5825 116.41 70.4201L116.407 70.424L75.281 128L116.407 185.576L116.409 185.58C117.699 187.421 118.44 189.317 118.605 191.264C118.77 193.213 118.357 195.18 117.388 197.159C116.417 199.141 115.099 200.651 113.427 201.663C111.756 202.673 109.762 203.166 107.468 203.167C105.424 203.174 103.554 202.664 101.872 201.632C100.221 200.619 98.8398 199.375 97.7332 197.9L97.7331 197.9L97.7255 197.889L52.6589 134.423L52.6587 134.423L52.6514 134.412C51.9225 133.326 51.3685 132.269 50.9965 131.242C50.6207 130.205 50.4332 129.123 50.4332 128C50.4332 126.877 50.6206 125.757 50.9922 124.642C51.3651 123.523 51.9241 122.497 52.6671 121.566L97.7255 58.1105L97.7297 58.1047L97.7339 58.099C98.8405 56.631 100.222 55.3912 101.872 54.3791C103.554 53.3475 105.423 52.8334 107.466 52.8333ZM107.466 52.8333C107.466 52.8333 107.466 52.8333 107.467 52.8333V53.3333L107.466 52.8333C107.466 52.8333 107.466 52.8333 107.466 52.8333ZM170.933 52.8333C173.224 52.8297 175.216 53.3214 176.885 54.3323C178.557 55.344 179.873 56.8563 180.844 58.8417C181.812 60.8234 182.227 62.7924 182.063 64.7404C181.9 66.6879 181.162 68.5824 179.876 70.4201L179.876 70.4201L179.873 70.424L138.748 128L179.873 185.576L179.877 185.581C181.159 187.422 181.895 189.318 182.058 191.265C182.221 193.213 181.809 195.18 180.844 197.158C179.877 199.14 178.562 200.651 176.891 201.662C175.222 202.673 173.229 203.166 170.935 203.167C168.891 203.174 167.021 202.664 165.338 201.632C163.688 200.619 162.306 199.375 161.2 197.9L161.2 197.9L161.192 197.889L116.134 134.434C115.391 133.503 114.832 132.477 114.459 131.358C114.087 130.243 113.9 129.123 113.9 128C113.9 126.877 114.087 125.757 114.459 124.642C114.832 123.523 115.391 122.497 116.134 121.566L161.192 58.1105L161.196 58.1047L161.201 58.099C162.307 56.631 163.688 55.3912 165.338 54.3791C167.02 53.3475 168.889 52.8334 170.933 52.8333ZM170.933 52.8333C170.933 52.8333 170.933 52.8333 170.932 52.8333L170.933 53.333V52.8333C170.933 52.8333 170.933 52.8333 170.933 52.8333Z" stroke="#DDDDDD" shape-rendering="crispEdges"/>
</g>
<defs>
<filter id="filter0_d_4148_4144" x="33.9331" y="40.3333" width="164.665" height="183.333" filterUnits="userSpaceOnUse" color-interpolation-filters="sRGB">
<feFlood flood-opacity="0" result="BackgroundImageFix"/>
<feColorMatrix in="SourceAlpha" type="matrix" values="0 0 0 0 0 0 0 0 0 0 0 0 0 0 0 0 0 0 127 0" result="hardAlpha"/>
<feOffset dy="4"/>
<feGaussianBlur stdDeviation="8"/>
<feComposite in2="hardAlpha" operator="out"/>
<feColorMatrix type="matrix" values="0 0 0 0 0 0 0 0 0 0 0 0 0 0 0 0 0 0 0.25 0"/>
<feBlend mode="normal" in2="BackgroundImageFix" result="effect1_dropShadow_4148_4144"/>
<feBlend mode="normal" in="SourceGraphic" in2="effect1_dropShadow_4148_4144" result="shape"/>
</filter>
<linearGradient id="paint0_linear_4148_4144" x1="116.266" y1="53.3333" x2="116.266" y2="202.667" gradientUnits="userSpaceOnUse">
<stop stop-color="#F5FAFF" stop-opacity="0.88"/>
<stop offset="0.5" stop-color="#C6D7E9" stop-opacity="0.71"/>
<stop offset="1" stop-color="#F5FAFF" stop-opacity="0.87"/>
</linearGradient>
</defs>
</svg>
