<svg width="256" height="256" viewBox="0 0 256 256" fill="none" xmlns="http://www.w3.org/2000/svg">
<g filter="url(#filter0_d_4148_4144)">
<path d="M148.533 202.667C144.089 202.667 140.932 200.757 139.061 196.939C137.191 193.12 137.504 189.429 140 185.867L181.333 128L140 70.1333C137.511 66.5778 137.198 62.8871 139.061 59.0613C140.925 55.2356 144.082 53.3262 148.533 53.3333C150.489 53.3333 152.267 53.824 153.867 54.8053C155.467 55.7867 156.8 56.9849 157.867 58.4L202.933 121.867C203.645 122.756 204.178 123.733 204.533 124.8C204.889 125.867 205.067 126.933 205.067 128C205.067 129.067 204.889 130.091 204.533 131.072C204.178 132.053 203.645 133.074 202.933 134.133L157.867 197.6C156.8 199.022 155.467 200.224 153.867 201.205C152.267 202.187 150.489 202.674 148.533 202.667ZM85.0668 202.667C80.6223 202.667 77.4686 200.757 75.6054 196.939C73.7423 193.12 74.0517 189.429 76.5335 185.867L117.867 128L76.5335 70.1333C74.0446 66.5778 73.7352 62.8871 75.6054 59.0613C77.4757 55.2356 80.6294 53.3262 85.0668 53.3333C87.0223 53.3333 88.8001 53.824 90.4001 54.8053C92.0001 55.7867 93.3335 56.9849 94.4001 58.4L139.467 121.867C140.178 122.756 140.711 123.733 141.067 124.8C141.422 125.867 141.6 126.933 141.6 128C141.6 129.067 141.422 130.133 141.067 131.2C140.711 132.267 140.178 133.244 139.467 134.133L94.4001 197.6C93.3335 199.022 92.0001 200.224 90.4001 201.205C88.8001 202.187 87.0223 202.674 85.0668 202.667Z" fill="url(#paint0_linear_4148_4144)" shape-rendering="crispEdges"/>
<path d="M148.534 52.8333C146.236 52.8297 144.24 53.3213 142.568 54.3321C140.895 55.3439 139.579 56.8566 138.612 58.8424C137.647 60.8241 137.235 62.793 137.401 64.7409C137.566 66.6882 138.304 68.5825 139.59 70.4201L139.593 70.424L180.719 128L139.593 185.576L139.591 185.58C138.301 187.421 137.56 189.317 137.395 191.264C137.23 193.213 137.643 195.18 138.612 197.159C139.583 199.141 140.901 200.651 142.573 201.663C144.244 202.673 146.238 203.166 148.532 203.167C150.576 203.174 152.446 202.664 154.128 201.632C155.779 200.619 157.16 199.375 158.267 197.9L158.267 197.9L158.274 197.889L203.341 134.423L203.341 134.423L203.349 134.412C204.078 133.326 204.631 132.269 205.004 131.242C205.379 130.205 205.567 129.123 205.567 128C205.567 126.877 205.379 125.757 205.008 124.642C204.635 123.523 204.076 122.497 203.333 121.566L158.274 58.1105L158.27 58.1047L158.266 58.099C157.16 56.631 155.778 55.3912 154.128 54.3791C152.446 53.3475 150.577 52.8334 148.534 52.8333ZM148.534 52.8333C148.534 52.8333 148.534 52.8333 148.533 52.8333V53.3333L148.534 52.8333C148.534 52.8333 148.534 52.8333 148.534 52.8333ZM85.0672 52.8333C82.7758 52.8297 80.7842 53.3214 79.1145 54.3323C77.4434 55.344 76.1268 56.8563 75.1562 58.8417C74.1875 60.8234 73.7733 62.7924 73.9365 64.7404C74.0998 66.6879 74.8375 68.5824 76.1238 70.4201L76.1238 70.4201L76.1266 70.424L117.252 128L76.1266 185.576L76.1232 185.581C74.8407 187.422 74.1051 189.318 73.9419 191.265C73.7786 193.213 74.1909 195.18 75.1561 197.158C76.1232 199.14 77.4381 200.651 79.1092 201.662C80.7784 202.673 82.771 203.166 85.065 203.167C87.1093 203.174 88.9789 202.664 90.6615 201.632C92.3122 200.619 93.6936 199.375 94.8001 197.9L94.8003 197.9L94.8078 197.889L139.866 134.434C140.609 133.503 141.168 132.477 141.541 131.358C141.913 130.243 142.1 129.123 142.1 128C142.1 126.877 141.913 125.757 141.541 124.642C141.168 123.523 140.609 122.497 139.866 121.566L94.8078 58.1105L94.8037 58.1047L94.7994 58.099C93.6928 56.631 92.3117 55.3912 90.6615 54.3791C88.9796 53.3475 87.1108 52.8334 85.0672 52.8333ZM85.0672 52.8333C85.0673 52.8333 85.0674 52.8333 85.0676 52.8333L85.0668 53.333V52.8333C85.0669 52.8333 85.067 52.8333 85.0672 52.8333Z" stroke="#DDDDDD" shape-rendering="crispEdges"/>
</g>
<defs>
<filter id="filter0_d_4148_4144" x="57.4019" y="40.3333" width="164.665" height="183.333" filterUnits="userSpaceOnUse" color-interpolation-filters="sRGB">
<feFlood flood-opacity="0" result="BackgroundImageFix"/>
<feColorMatrix in="SourceAlpha" type="matrix" values="0 0 0 0 0 0 0 0 0 0 0 0 0 0 0 0 0 0 127 0" result="hardAlpha"/>
<feOffset dy="4"/>
<feGaussianBlur stdDeviation="8"/>
<feComposite in2="hardAlpha" operator="out"/>
<feColorMatrix type="matrix" values="0 0 0 0 0 0 0 0 0 0 0 0 0 0 0 0 0 0 0.25 0"/>
<feBlend mode="normal" in2="BackgroundImageFix" result="effect1_dropShadow_4148_4144"/>
<feBlend mode="normal" in="SourceGraphic" in2="effect1_dropShadow_4148_4144" result="shape"/>
</filter>
<linearGradient id="paint0_linear_4148_4144" x1="139.734" y1="53.3333" x2="139.734" y2="202.667" gradientUnits="userSpaceOnUse">
<stop stop-color="#F5FAFF" stop-opacity="0.88"/>
<stop offset="0.5" stop-color="#C6D7E9" stop-opacity="0.71"/>
<stop offset="1" stop-color="#F5FAFF" stop-opacity="0.87"/>
</linearGradient>
</defs>
</svg>
